<?xml version="1.0" encoding="utf-8"?>
<!-- Generator: Adobe Illustrator 26.1.0, SVG Export Plug-In . SVG Version: 6.00 Build 0)  -->
<svg version="1.1" id="Layer_1" xmlns="http://www.w3.org/2000/svg" xmlns:xlink="http://www.w3.org/1999/xlink" x="0px" y="0px"
	 viewBox="0 0 508 380" style="enable-background:new 0 0 508 380;" xml:space="preserve">
<style type="text/css">
	.st0{fill:none;stroke:url(#SVGID_1_);stroke-width:2;}
	.st1{fill:url(#SVGID_00000091728473710427362230000016052796275934436237_);}
	.st2{fill:#944989;fill-opacity:0.5;}
	.st3{fill:url(#SVGID_00000095340713987953030740000016652381089902945441_);}
	.st4{fill:none;stroke:url(#SVGID_00000110459329723257253380000001011682023452440962_);stroke-width:2;stroke-miterlimit:10;}
	.st5{fill:none;stroke:url(#SVGID_00000000923687420753935990000003477406423167820946_);stroke-width:2;stroke-miterlimit:10;}
	.st6{fill:none;stroke:url(#SVGID_00000132809319412101571330000002552062665733859728_);stroke-miterlimit:10;}
	.st7{fill:none;stroke:url(#SVGID_00000176740793647469942060000007608583371657795976_);stroke-miterlimit:10;}
	.st8{fill:none;stroke:url(#SVGID_00000065795907768822327690000005533029513549086634_);stroke-width:2;stroke-miterlimit:10;}
	.st9{fill:none;stroke:url(#SVGID_00000173848661581967152000000012336794490997630643_);stroke-width:2;stroke-miterlimit:10;}
	.st10{fill:#010101;stroke:#010101;stroke-width:0.67;stroke-miterlimit:10;}
	.st11{fill:none;stroke:url(#SVGID_00000035489546967478599190000008110171230999259551_);stroke-width:2;stroke-miterlimit:10;}
	.st12{fill:none;stroke:url(#SVGID_00000134250075676461874060000005611630835139916685_);stroke-width:2;stroke-miterlimit:10;}
	.st13{fill:none;stroke:url(#SVGID_00000083771603257183213970000007628556352566076843_);stroke-width:2;stroke-miterlimit:10;}
	.st14{fill:none;stroke:url(#SVGID_00000010282980137449720810000002158388995276291244_);stroke-width:5;stroke-miterlimit:10;}
	.st15{fill:none;stroke:url(#SVGID_00000005253957478325394030000009837283952296262299_);stroke-width:4;stroke-miterlimit:10;}
	.st16{fill:none;stroke:url(#SVGID_00000152238183688326226810000005523657261930089902_);stroke-width:4;stroke-miterlimit:10;}
	.st17{fill:none;stroke:url(#SVGID_00000157304651400024822000000011071143980194982078_);stroke-width:4;stroke-miterlimit:10;}
	.st18{fill:#FFFFFF;stroke:#010101;stroke-width:1.37;stroke-miterlimit:10;}
	.st19{fill:url(#SVGID_00000153686609613723891370000006369154716854002600_);fill-opacity:0.6;}
	.st20{fill:url(#SVGID_00000125583128054112058090000006011777145173515392_);}
	.st21{fill:url(#SVGID_00000123439901952261056500000009505558962211558027_);}
</style>
<linearGradient id="SVGID_1_" gradientUnits="userSpaceOnUse" x1="264.8134" y1="285.2901" x2="269.3134" y2="78.2901" gradientTransform="matrix(1 0 0 -1 0 382)">
	<stop  offset="0" style="stop-color:#1CB9D9"/>
	<stop  offset="1" style="stop-color:#3F5EFB;stop-opacity:0"/>
</linearGradient>
<path class="st0" d="M451.1,67.7v1 M451.1,67.7h-369c-11,0-20,9-20,20v185c0,11,9,20,20,20h163.6c-0.5-0.2-0.9-0.4-1.4-0.6
	c-0.3-0.1-0.6-0.2-0.9-0.4c-0.2-0.1-0.5-0.2-0.7-0.3c-0.5-0.2-1-0.4-1.5-0.7c-0.3-0.1-0.6-0.3-0.9-0.4c-0.4-0.2-0.9-0.4-1.3-0.6
	c-0.4-0.2-0.9-0.4-1.3-0.7c-0.9-0.5-1.9-1-2.8-1.5c-0.4-0.2-0.8-0.4-1.1-0.6c-0.8-0.5-1.7-1-2.5-1.5c-0.8-0.5-1.6-1.1-2.5-1.6
	c-0.4-0.3-0.8-0.5-1.2-0.8c-0.8-0.6-1.6-1.1-2.4-1.7c-0.4-0.3-0.8-0.6-1.2-0.9c-1.2-0.9-2.3-1.8-3.4-2.8c-0.4-0.3-0.7-0.6-1.1-1
	c-1.2-1-2.3-2.1-3.4-3.2c-1-1-1.9-1.9-2.8-2.9c-0.7-0.7-1.3-1.5-1.9-2.2c-2.2-2.6-4.3-5.3-6.2-8.1c-0.3-0.4-0.5-0.8-0.8-1.2
	c-0.5-0.8-1.1-1.7-1.6-2.5c-0.3-0.4-0.5-0.8-0.8-1.3c-0.3-0.4-0.5-0.9-0.7-1.3c-0.2-0.4-0.5-0.9-0.7-1.3c-0.5-0.9-0.9-1.7-1.4-2.6
	c-0.2-0.4-0.4-0.9-0.6-1.3c-0.2-0.5-0.4-0.9-0.6-1.3c-0.4-0.9-0.8-1.8-1.2-2.7c-0.2-0.4-0.3-0.8-0.5-1.2c-0.4-1-0.8-2.1-1.2-3.2
	c-0.2-0.4-0.3-0.8-0.4-1.2c-0.1-0.5-0.3-0.9-0.5-1.4c-0.2-0.5-0.3-1-0.4-1.4c-0.3-1-0.6-1.9-0.8-2.9c-0.1-0.5-0.3-1-0.4-1.5
	c-0.1-0.5-0.2-1-0.3-1.5c-0.1-0.5-0.2-1-0.3-1.5c-0.1-0.5-0.2-1-0.3-1.5c-0.1-0.5-0.2-1-0.3-1.5c-0.1-0.5-0.2-1-0.2-1.5
	c-0.1-0.5-0.2-1-0.2-1.5c-0.1-0.5-0.1-1-0.2-1.5c0-0.1,0-0.1,0-0.2c-0.1-0.6-0.1-1.1-0.2-1.7c0-0.3-0.1-0.7-0.1-1
	c-0.1-0.9-0.1-1.7-0.2-2.6c0-0.6-0.1-1.1-0.1-1.7c0-0.2,0-0.4,0-0.5c0-0.8,0-1.5,0-2.3c0-48.3,39.2-87.5,87.5-87.5
	s87.5,39.2,87.5,87.5c0,0.8,0,1.5,0,2.3c0,0.2,0,0.3,0,0.5c0,0.6,0,1.1-0.1,1.7c0,0.9-0.1,1.7-0.2,2.6c0,0.3,0,0.7-0.1,1
	c0,0.6-0.1,1.1-0.2,1.7c0,0.1,0,0.1,0,0.2c-0.1,0.5-0.1,1-0.2,1.5c-0.1,0.5-0.1,1-0.2,1.5c-0.1,0.5-0.1,1-0.2,1.5
	c-0.1,0.5-0.2,1-0.3,1.5c-0.1,0.5-0.2,1-0.3,1.5c-0.1,0.5-0.2,1-0.3,1.5c-0.1,0.5-0.2,1-0.3,1.5c-0.1,0.5-0.2,1-0.4,1.5
	c-0.2,1-0.5,1.9-0.8,2.9c-0.1,0.5-0.3,1-0.4,1.4s-0.3,0.9-0.5,1.4c-0.1,0.4-0.3,0.8-0.4,1.2c-0.4,1.1-0.8,2.1-1.2,3.2
	c-0.2,0.4-0.3,0.8-0.5,1.2c-0.4,0.9-0.8,1.8-1.2,2.7c-0.2,0.5-0.4,0.9-0.6,1.3c-0.2,0.4-0.4,0.9-0.6,1.3c-0.4,0.9-0.9,1.8-1.4,2.6
	c-0.2,0.4-0.5,0.9-0.7,1.3c-0.2,0.4-0.5,0.9-0.7,1.3c-0.2,0.4-0.5,0.9-0.8,1.3c-0.5,0.8-1,1.7-1.6,2.5c-0.3,0.4-0.5,0.8-0.8,1.2
	c-1.9,2.8-4,5.6-6.2,8.1c-0.6,0.7-1.3,1.5-1.9,2.2c-0.9,1-1.9,2-2.8,2.9c-1.1,1.1-2.2,2.2-3.4,3.2c-0.4,0.3-0.7,0.6-1.1,1
	c-1.1,1-2.2,1.9-3.4,2.8c-0.4,0.3-0.8,0.6-1.2,0.9c-0.8,0.6-1.6,1.2-2.4,1.7c-0.4,0.3-0.8,0.6-1.2,0.8c-0.8,0.5-1.6,1.1-2.5,1.6
	c-0.8,0.5-1.7,1-2.5,1.5c-0.4,0.2-0.8,0.4-1.1,0.6c-0.9,0.5-1.8,1-2.8,1.5c-0.4,0.2-0.9,0.5-1.3,0.7c-0.4,0.2-0.9,0.4-1.3,0.6
	c-0.3,0.1-0.6,0.3-0.9,0.4c-0.5,0.2-1,0.5-1.5,0.7c-0.2,0.1-0.5,0.2-0.7,0.3c-0.3,0.1-0.6,0.3-0.9,0.4c-0.5,0.2-0.9,0.4-1.4,0.6
	h141.6c11,0,20-9,20-20v-185C471.1,76.7,462.1,67.7,451.1,67.7L451.1,67.7z M451.1,68.7c10.5,0,19,8.5,19,19v185
	c0,10.5-8.5,19-19,19H314.4c0.3-0.2,0.6-0.3,0.9-0.5c0.5-0.2,0.9-0.4,1.4-0.6c0.5-0.2,0.9-0.5,1.3-0.7c1-0.5,1.9-1,2.8-1.5
	c0.4-0.2,0.8-0.4,1.2-0.7c0.8-0.4,1.6-0.9,2.6-1.5c0.8-0.5,1.6-1,2.5-1.6c0.5-0.3,0.9-0.6,1.2-0.8c0.7-0.5,1.5-1,2.4-1.7
	c0.4-0.3,0.8-0.6,1.2-0.9c1.1-0.9,2.2-1.8,3.4-2.8c0.4-0.4,0.8-0.7,1.1-1c1.2-1,2.3-2.1,3.5-3.2c1-1,2-2,2.9-3
	c0.7-0.7,1.3-1.5,2-2.2c2.3-2.6,4.4-5.4,6.3-8.2c0.3-0.4,0.5-0.8,0.8-1.2c0.5-0.8,1.1-1.7,1.6-2.5c0.3-0.5,0.5-0.9,0.8-1.3
	c0.2-0.4,0.5-0.8,0.7-1.3c0.3-0.5,0.5-0.9,0.7-1.3c0.4-0.8,0.9-1.7,1.4-2.7l0.2-0.5c0.1-0.3,0.3-0.5,0.4-0.8
	c0.2-0.4,0.4-0.9,0.6-1.4c0.4-0.9,0.8-1.8,1.2-2.8c0.2-0.4,0.4-0.8,0.5-1.2c0.5-1.2,0.9-2.2,1.2-3.2c0.2-0.4,0.3-0.8,0.4-1.3
	c0.1-0.2,0.1-0.4,0.2-0.6c0.1-0.3,0.2-0.6,0.3-0.8c0.1-0.5,0.3-1,0.5-1.5c0.3-1.1,0.6-2.1,0.8-2.9c0.1-0.5,0.3-1,0.4-1.5l0.1-0.6
	c0.1-0.3,0.1-0.6,0.2-0.9c0.1-0.5,0.2-1,0.3-1.5c0.1-0.6,0.2-1.1,0.3-1.5c0.1-0.5,0.2-1,0.3-1.5c0.1-0.5,0.2-1,0.2-1.5
	c0.1-0.5,0.2-1,0.2-1.5c0.1-0.5,0.1-1,0.2-1.6c0-0.1,0-0.2,0-0.3c0.1-0.6,0.1-1.2,0.2-1.6c0-0.4,0.1-0.7,0.1-1.1
	c0.1-0.8,0.1-1.6,0.2-2.6c0-0.5,0.1-1.1,0.1-1.7c0-0.2,0-0.4,0-0.6c0-0.7,0-1.4,0-2.3c0-48.8-39.7-88.5-88.5-88.5
	c-23.6,0-45.9,9.2-62.6,25.9s-25.9,38.9-25.9,62.6c0,0.9,0,1.6,0,2.3c0,0.2,0,0.4,0,0.6c0,0.7,0,1.2,0.1,1.7c0,1.1,0.1,1.9,0.2,2.6
	c0,0.4,0.1,0.7,0.1,1c0,0.5,0.1,1.1,0.2,1.7c0,0.1,0,0.2,0,0.3c0.1,0.5,0.1,1,0.2,1.5c0.1,0.5,0.1,1.1,0.2,1.5
	c0.1,0.5,0.1,1,0.2,1.5c0.1,0.5,0.2,1,0.3,1.5c0.1,0.5,0.2,1,0.3,1.5c0.1,0.5,0.2,1.1,0.3,1.5c0.1,0.3,0.1,0.6,0.2,0.9l0.1,0.6
	c0.1,0.5,0.2,1,0.4,1.5c0.2,0.9,0.5,1.8,0.8,2.9c0.1,0.5,0.3,1,0.4,1.5c0.1,0.3,0.2,0.6,0.3,0.8c0.1,0.2,0.1,0.4,0.2,0.6
	c0.1,0.5,0.3,0.9,0.4,1.2c0.4,1,0.7,2,1.2,3.2c0.2,0.4,0.3,0.9,0.5,1.2c0.4,1,0.8,1.9,1.2,2.8c0.2,0.5,0.4,1,0.6,1.4
	c0.1,0.3,0.3,0.5,0.4,0.8l0.3,0.5c0.5,1,1,1.9,1.4,2.6c0.2,0.4,0.4,0.8,0.7,1.3c0.3,0.5,0.5,0.9,0.7,1.3c0.2,0.4,0.5,0.8,0.8,1.3
	c0.5,0.9,1,1.7,1.6,2.5c0.3,0.4,0.5,0.8,0.8,1.2c1.9,2.9,4,5.6,6.3,8.2c0.6,0.8,1.3,1.5,2,2.2c0.9,1,1.8,1.9,2.9,3
	c1.1,1.1,2.3,2.2,3.5,3.2c0.3,0.3,0.7,0.6,1.1,1c1.2,1,2.3,2,3.4,2.8c0.4,0.3,0.8,0.6,1.2,0.9c0.9,0.7,1.7,1.3,2.4,1.7
	c0.4,0.3,0.7,0.5,1.2,0.9c0.9,0.6,1.7,1.1,2.5,1.6c0.9,0.6,1.8,1.1,2.6,1.5c0.4,0.2,0.8,0.5,1.1,0.6c0.9,0.5,1.8,1,2.8,1.5
	c0.4,0.2,0.9,0.5,1.3,0.7c0.4,0.2,0.9,0.4,1.3,0.6c0.3,0.2,0.6,0.3,0.9,0.4H82.1c-10.5,0-19-8.5-19-19v-185c0-10.5,8.5-19,19-19
	H451.1z"/>
<linearGradient id="SVGID_00000124154697440979772220000006645995280223039120_" gradientUnits="userSpaceOnUse" x1="133.5512" y1="293.6621" x2="135.0512" y2="269.1621" gradientTransform="matrix(1 0 0 -1 0 382)">
	<stop  offset="0" style="stop-color:#944989"/>
	<stop  offset="1" style="stop-color:#91738C;stop-opacity:0"/>
</linearGradient>
<path style="fill:url(#SVGID_00000124154697440979772220000006645995280223039120_);" d="M177.7,90.2v1c3,0,5.4,2.4,5.4,5.4v2.2
	c0,3-2.4,5.4-5.4,5.4H90.6c-3,0-5.4-2.4-5.4-5.4v-2.2c0-3,2.4-5.4,5.4-5.4h87.2V90.2z M177.7,90.2H90.6c-3.5,0-6.4,2.9-6.4,6.4v2.2
	c0,3.5,2.9,6.4,6.4,6.4h87.2c3.5,0,6.4-2.9,6.4-6.4v-2.2C184.1,93.1,181.2,90.2,177.7,90.2z"/>
<path class="st2" d="M428.1,86.7c6.1,0,11,4.9,11,11s-4.9,11-11,11c-6.1,0-11-4.9-11-11S422,86.7,428.1,86.7z M428.1,85.7
	c-6.6,0-12,5.4-12,12c0,6.6,5.4,12,12,12c6.6,0,12-5.4,12-12C440.1,91.1,434.7,85.7,428.1,85.7z"/>
<linearGradient id="SVGID_00000146458535788536191990000005480739856116355227_" gradientUnits="userSpaceOnUse" x1="446.119" y1="278.27" x2="446.119" y2="266.27" gradientTransform="matrix(1 0 0 -1 0 382)">
	<stop  offset="0" style="stop-color:#8F2D56"/>
	<stop  offset="1" style="stop-color:#8F2D56;stop-opacity:0"/>
</linearGradient>
<path style="fill:url(#SVGID_00000146458535788536191990000005480739856116355227_);" d="M446.1,104.7c2.8,0,5,2.2,5,5
	c0,2.8-2.2,5-5,5c-2.8,0-5-2.2-5-5C441.1,107,443.4,104.7,446.1,104.7z M446.1,103.7c-3.3,0-6,2.7-6,6c0,3.3,2.7,6,6,6s6-2.7,6-6
	C452.1,106.4,449.4,103.7,446.1,103.7z"/>
<linearGradient id="SVGID_00000037669279091679824920000014462834711880553620_" gradientUnits="userSpaceOnUse" x1="323.119" y1="341.27" x2="323.119" y2="313.77" gradientTransform="matrix(1 0 0 -1 0 382)">
	<stop  offset="0" style="stop-color:#1CB9D9"/>
	<stop  offset="1" style="stop-color:#1CB9D9;stop-opacity:0"/>
</linearGradient>
<path style="fill:none;stroke:url(#SVGID_00000037669279091679824920000014462834711880553620_);stroke-width:2;stroke-miterlimit:10;" d="
	M227,67.2l46.4-25.5h99.5l46.4,25.5H227z"/>
<linearGradient id="SVGID_00000000940900440217858960000004004061988311027355_" gradientUnits="userSpaceOnUse" x1="142.619" y1="336.27" x2="142.619" y2="314.27" gradientTransform="matrix(1 0 0 -1 0 382)">
	<stop  offset="0" style="stop-color:#1CB9D9"/>
	<stop  offset="1" style="stop-color:#1CB9D9;stop-opacity:0"/>
</linearGradient>
<path style="fill:none;stroke:url(#SVGID_00000000940900440217858960000004004061988311027355_);stroke-width:2;stroke-miterlimit:10;" d="
	M130.2,46.7h24.9c5,0,9,4,9,9v1.9c0,5-4,9-9,9h-24.9c-5,0-9-4-9-9v-1.9C121.1,50.8,125.2,46.7,130.2,46.7z"/>
<linearGradient id="SVGID_00000016074947424778549360000011297464033383581875_" gradientUnits="userSpaceOnUse" x1="277.619" y1="258.27" x2="277.619" y2="83.27" gradientTransform="matrix(1 0 0 -1 0 382)">
	<stop  offset="0" style="stop-color:#010101"/>
	<stop  offset="1" style="stop-color:#010101;stop-opacity:0"/>
</linearGradient>
<path style="fill:none;stroke:url(#SVGID_00000016074947424778549360000011297464033383581875_);stroke-miterlimit:10;" d="
	M277.6,123.7c-48.3,0-87.5,39.2-87.5,87.5c0,0.8,0,1.5,0,2.3c0,0.2,0,0.3,0,0.5c0,0.6,0,1.1,0.1,1.7c0,0.9,0.1,1.7,0.2,2.6
	c0,0.3,0.1,0.7,0.1,1c0,0.6,0.1,1.1,0.2,1.7c0,0.1,0,0.1,0,0.2c0.1,0.5,0.1,1,0.2,1.5c0.1,0.5,0.1,1,0.2,1.5c0.1,0.5,0.2,1,0.2,1.5
	s0.2,1,0.3,1.5c0.1,0.5,0.2,1,0.3,1.5c0.1,0.5,0.2,1,0.3,1.5c0.1,0.5,0.2,1,0.3,1.5c0.1,0.5,0.2,1,0.4,1.5c0.2,1,0.5,1.9,0.8,2.9
	c0.1,0.5,0.3,1,0.4,1.4c0.1,0.5,0.3,0.9,0.5,1.4c0.1,0.4,0.3,0.8,0.4,1.2c0.4,1.1,0.8,2.1,1.2,3.2c0.2,0.4,0.3,0.8,0.5,1.2
	c0.4,0.9,0.8,1.8,1.2,2.7c0.2,0.5,0.4,0.9,0.6,1.3c0.2,0.4,0.4,0.9,0.6,1.3c0.4,0.9,0.9,1.8,1.4,2.6c0.2,0.4,0.5,0.9,0.7,1.3
	c0.2,0.4,0.5,0.9,0.7,1.3c0.2,0.4,0.5,0.9,0.8,1.3c0.5,0.8,1,1.7,1.6,2.5c0.3,0.4,0.5,0.8,0.8,1.2c1.9,2.8,4,5.6,6.2,8.1
	c0.6,0.7,1.3,1.5,1.9,2.2c0.9,1,1.9,2,2.8,2.9c1.1,1.1,2.2,2.2,3.4,3.2c0.4,0.3,0.7,0.6,1.1,1c1.1,1,2.2,1.9,3.4,2.8
	c0.4,0.3,0.8,0.6,1.2,0.9c0.8,0.6,1.6,1.2,2.4,1.7c0.4,0.3,0.8,0.6,1.2,0.8c0.8,0.5,1.6,1.1,2.5,1.6c0.8,0.5,1.7,1,2.5,1.5
	c0.4,0.2,0.8,0.4,1.1,0.6c0.9,0.5,1.8,1,2.8,1.5c0.4,0.2,0.9,0.5,1.3,0.7c0.4,0.2,0.9,0.4,1.3,0.6c0.3,0.1,0.6,0.3,0.9,0.4
	c0.5,0.2,1,0.5,1.5,0.7c0.2,0.1,0.5,0.2,0.7,0.3c0.3,0.1,0.6,0.3,0.9,0.4c0.5,0.2,0.9,0.4,1.4,0.6c9.9,3.9,20.6,6,31.9,6
	c11.3,0,22-2.1,31.9-6c0.5-0.2,0.9-0.4,1.4-0.6c0.3-0.1,0.6-0.2,0.9-0.4c0.2-0.1,0.5-0.2,0.7-0.3c0.5-0.2,1-0.4,1.5-0.7
	c0.3-0.1,0.6-0.3,0.9-0.4c0.5-0.2,0.9-0.4,1.3-0.6c0.4-0.2,0.9-0.4,1.3-0.7c0.9-0.5,1.9-1,2.8-1.5c0.4-0.2,0.8-0.4,1.1-0.6
	c0.8-0.5,1.7-1,2.5-1.5c0.8-0.5,1.6-1.1,2.5-1.6c0.4-0.3,0.8-0.5,1.2-0.8c0.8-0.6,1.6-1.1,2.4-1.7c0.4-0.3,0.8-0.6,1.2-0.9
	c1.2-0.9,2.3-1.8,3.4-2.8c0.4-0.3,0.7-0.6,1.1-1c1.2-1,2.3-2.1,3.4-3.2c1-1,1.9-1.9,2.8-2.9c0.7-0.7,1.3-1.5,2-2.2
	c2.2-2.6,4.3-5.3,6.2-8.1c0.3-0.4,0.5-0.8,0.8-1.2c0.5-0.8,1-1.7,1.6-2.5c0.3-0.4,0.5-0.8,0.8-1.3c0.2-0.4,0.5-0.9,0.7-1.3
	c0.2-0.4,0.5-0.9,0.7-1.3c0.5-0.9,0.9-1.7,1.4-2.6c0.2-0.4,0.4-0.9,0.6-1.3c0.2-0.5,0.4-0.9,0.6-1.3c0.4-0.9,0.8-1.8,1.2-2.7
	c0.2-0.4,0.3-0.8,0.5-1.2c0.4-1,0.8-2.1,1.2-3.2c0.1-0.4,0.3-0.8,0.4-1.2c0.1-0.5,0.3-0.9,0.5-1.4c0.2-0.5,0.3-1,0.4-1.4
	c0.3-1,0.6-1.9,0.8-2.9c0.1-0.5,0.2-1,0.4-1.5c0.1-0.5,0.2-1,0.3-1.5c0.1-0.5,0.2-1,0.3-1.5c0.1-0.5,0.2-1,0.3-1.5
	c0.1-0.5,0.2-1,0.3-1.5c0.1-0.5,0.2-1,0.2-1.5c0.1-0.5,0.2-1,0.2-1.5c0.1-0.5,0.1-1,0.2-1.5c0-0.1,0-0.1,0-0.2
	c0.1-0.6,0.1-1.1,0.2-1.7c0-0.3,0.1-0.7,0.1-1c0.1-0.9,0.1-1.7,0.2-2.6c0-0.6,0.1-1.1,0.1-1.7c0-0.2,0-0.4,0-0.5c0-0.8,0-1.5,0-2.3
	C365.1,162.9,325.9,123.7,277.6,123.7L277.6,123.7z M359.5,221.2c-4.4,36.6-32.8,65.8-69,71.5c-4.2,0.7-8.5,1-12.9,1
	c-4.4,0-8.7-0.3-12.9-1c-36.2-5.7-64.6-34.9-69-71.5c-0.4-3.3-0.6-6.6-0.6-10c0-45.6,36.9-82.5,82.5-82.5s82.5,36.9,82.5,82.5
	C360.1,214.6,359.9,217.9,359.5,221.2L359.5,221.2z"/>
<linearGradient id="SVGID_00000083773585804962341640000000351634097863931044_" gradientUnits="userSpaceOnUse" x1="278.3695" y1="245.54" x2="278.1705" y2="94.7" gradientTransform="matrix(1 0 0 -1 0 382)">
	<stop  offset="0" style="stop-color:#F4A261"/>
	<stop  offset="1" style="stop-color:#F4A261;stop-opacity:0"/>
</linearGradient>
<path style="fill:none;stroke:url(#SVGID_00000083773585804962341640000000351634097863931044_);stroke-miterlimit:10;" d="
	M349.7,221.2L349.7,221.2c-4.6,35.4-34.8,62.7-71.4,62.7c-36.6,0-66.8-27.3-71.4-62.7v0c-0.4-3-0.6-6.1-0.6-9.3
	c0-39.8,32.2-72,72-72c39.8,0,72,32.2,72,72C350.3,215,350.1,218.1,349.7,221.2z"/>
<linearGradient id="SVGID_00000015315580318048525310000017568082163368147084_" gradientUnits="userSpaceOnUse" x1="103.1658" y1="161.9516" x2="191.6658" y2="157.4516" gradientTransform="matrix(1 0 0 -1 0 382)">
	<stop  offset="0" style="stop-color:#944989"/>
	<stop  offset="1" style="stop-color:#944989;stop-opacity:0"/>
</linearGradient>
<path style="fill:none;stroke:url(#SVGID_00000015315580318048525310000017568082163368147084_);stroke-width:2;stroke-miterlimit:10;" d="
	M190.7,221.2H62.1"/>
<linearGradient id="SVGID_00000152252974995600084720000004766742754969337737_" gradientUnits="userSpaceOnUse" x1="417.836" y1="160.77" x2="357.67" y2="161.2" gradientTransform="matrix(1 0 0 -1 0 382)">
	<stop  offset="1.004650e-02" style="stop-color:#944989"/>
	<stop  offset="1" style="stop-color:#944989;stop-opacity:0"/>
</linearGradient>
<path style="fill:none;stroke:url(#SVGID_00000152252974995600084720000004766742754969337737_);stroke-width:2;stroke-miterlimit:10;" d="
	M471.1,221.2H364.6"/>
<path class="st10" d="M279.6,244.2c16.6,0,30-13.4,30-30s-13.4-30-30-30c-16.6,0-30,13.4-30,30S263.1,244.2,279.6,244.2z"/>
<linearGradient id="SVGID_00000147214272356409485380000003915427760307255210_" gradientUnits="userSpaceOnUse" x1="267.8562" y1="209.481" x2="267.8562" y2="188.77" gradientTransform="matrix(1 0 0 -1 0 382)">
	<stop  offset="0" style="stop-color:#8F2D56"/>
	<stop  offset="1" style="stop-color:#8F2D56;stop-opacity:0"/>
</linearGradient>
<path style="fill:none;stroke:url(#SVGID_00000147214272356409485380000003915427760307255210_);stroke-width:2;stroke-miterlimit:10;" d="
	M245.6,193.2c1-2.3,5.8-12.8,18-18c13.2-5.6,25-0.9,27,0"/>
<linearGradient id="SVGID_00000078033760264674697830000000029578371173995655_" gradientUnits="userSpaceOnUse" x1="310.8937" y1="188.77" x2="310.8937" y2="134.77" gradientTransform="matrix(1 0 0 -1 0 382)">
	<stop  offset="0" style="stop-color:#00B4D8"/>
	<stop  offset="1" style="stop-color:#00B4D8;stop-opacity:0"/>
</linearGradient>
<path style="fill:none;stroke:url(#SVGID_00000078033760264674697830000000029578371173995655_);stroke-width:2;stroke-miterlimit:10;" d="
	M317.6,193.2c1.1,2.3,8.5,18.9,0,36c-5.4,11-14.5,16.2-18,18"/>
<linearGradient id="SVGID_00000061473743433116728000000017549970566496652679_" gradientUnits="userSpaceOnUse" x1="229.4206" y1="158.459" x2="258.9206" y2="211.959" gradientTransform="matrix(1 0 0 -1 0 382)">
	<stop  offset="0" style="stop-color:#724714"/>
	<stop  offset="1" style="stop-color:#724714;stop-opacity:0"/>
</linearGradient>
<path style="fill:none;stroke:url(#SVGID_00000061473743433116728000000017549970566496652679_);stroke-width:2;stroke-miterlimit:10;" d="
	M245.6,175.2c-2.2,1.8-17.9,14.7-18,36c-0.1,13.7,6.4,23.4,9,27"/>
<linearGradient id="SVGID_00000068652125436157477210000000345992504727135120_" gradientUnits="userSpaceOnUse" x1="328.387" y1="141.2874" x2="271.887" y2="112.7874" gradientTransform="matrix(1 0 0 -1 0 382)">
	<stop  offset="0" style="stop-color:#010101"/>
	<stop  offset="1" style="stop-color:#010101;stop-opacity:0"/>
</linearGradient>
<path style="fill:none;stroke:url(#SVGID_00000068652125436157477210000000345992504727135120_);stroke-width:5;stroke-miterlimit:10;" d="
	M264.6,263.2c3.3,1.3,18.6,7,36,0c18.8-7.5,25.8-24.1,27-27"/>
<linearGradient id="SVGID_00000096017800480931884900000001657387109967740842_" gradientUnits="userSpaceOnUse" x1="230.9156" y1="217.389" x2="306.4156" y2="230.389" gradientTransform="matrix(1 0 0 -1 0 382)">
	<stop  offset="0.3458" style="stop-color:#010101"/>
	<stop  offset="1" style="stop-color:#010101;stop-opacity:0"/>
</linearGradient>
<path style="fill:none;stroke:url(#SVGID_00000096017800480931884900000001657387109967740842_);stroke-width:4;stroke-miterlimit:10;" d="
	M227.6,175.2c2.1-3.1,17.3-24.8,45-27c17.8-1.4,31.1,6,36,9"/>
<linearGradient id="SVGID_00000179631702883276215930000013807929708607063472_" gradientUnits="userSpaceOnUse" x1="399.301" y1="380.4948" x2="399.301" y2="236" gradientTransform="matrix(1 0 0 -1 0 382)">
	<stop  offset="0" style="stop-color:#1CB9D9"/>
	<stop  offset="1" style="stop-color:#3F5EFB;stop-opacity:0"/>
</linearGradient>
<path style="fill:none;stroke:url(#SVGID_00000179631702883276215930000013807929708607063472_);stroke-width:4;stroke-miterlimit:10;" d="
	M506.3,146V2h-216"/>
<linearGradient id="SVGID_00000053509301704314419450000014838464483992276657_" gradientUnits="userSpaceOnUse" x1="1.6738" y1="100.96" x2="140.9934" y2="100.96" gradientTransform="matrix(1 0 0 -1 0 382)">
	<stop  offset="0" style="stop-color:#1CB9D9"/>
	<stop  offset="1" style="stop-color:#3F5EFB;stop-opacity:0"/>
</linearGradient>
<path style="fill:none;stroke:url(#SVGID_00000053509301704314419450000014838464483992276657_);stroke-width:4;stroke-miterlimit:10;" d="
	M2,208v144h216"/>
<path class="st18" d="M297.5,212.4c2-1,1.9-5.2-0.2-9.4c-2.1-4.2-5.4-6.8-7.4-5.8c-2,1-1.9,5.2,0.2,9.4
	C292.2,210.8,295.5,213.4,297.5,212.4z"/>
<linearGradient id="SVGID_00000025415879330809861980000000683200315624015497_" gradientUnits="userSpaceOnUse" x1="417.1385" y1="103.2" x2="417.1385" y2="2.2" gradientTransform="matrix(1 0 0 -1 0 382)">
	<stop  offset="0.5156" style="stop-color:#1CB9D9"/>
	<stop  offset="0.9844" style="stop-color:#3F5EFB"/>
</linearGradient>
<path style="fill:url(#SVGID_00000025415879330809861980000000683200315624015497_);fill-opacity:0.6;" d="M356.2,337.4
	c-2.1,3.8-4.3,7-6.6,9.5c-2.3,2.5-4.2,3.8-5.6,3.8c-2,0-3.1-2.1-3.3-6.3l-0.2-4.3l-0.4-8.8l-0.1-2.5c-0.2-3.4-0.8-5-1.8-5
	c-1.6,0-3.2,1.5-4.8,4.6c-0.5-0.4-0.8-0.8-0.8-1.2c0-1.1,1-2.6,3-4.4c2-1.8,3.7-2.7,4.9-2.7c1.3,0,2.2,0.6,2.8,1.8
	c0.5,1.2,0.9,3.3,1.1,6.5l0.6,10.9c0.2,4.2,0.9,6.2,2,6.2c1.7,0,3.8-1.9,6.3-5.8c2.5-3.9,4.1-7.7,4.8-11.4l1.2-6.4l5.6-1.9
	c-0.7,1.8-1.4,4.6-2.2,8.3l-4.2,21c-1.6,8.2-4.2,14.3-7.6,18.2c-5.1,5.8-11.1,8.8-17.9,8.8c-1.4,0-3-0.3-4.8-0.9l3.8-4.2
	c2,0.9,4,1.3,6.1,1.3c4.3,0,7.6-1.4,9.8-4.2c2.2-2.8,4-8,5.4-15.5L356.2,337.4z M394.2,348.7l-4.7,1.9l0.1-0.9l0.2-2.3l0.2-2.2
	l1.6-14.5l0.2-1.7c0.1-1.3,0.2-2.3,0.2-3.1c0-1.3-0.3-2-1-2c-1.6,0-3.2,1.8-5,5.3c-0.5-0.4-0.7-0.7-0.7-1c0-1.2,1.1-2.9,3.4-5.1
	c2.3-2.2,4.1-3.2,5.4-3.2c1.8,0,2.7,1.1,2.7,3.4c0,0.6-0.1,1.4-0.2,2.3l-0.2,2.5l-0.2,2.1l-0.2,2.2c2.5-3.7,5.1-6.7,8.1-9.1
	c2.9-2.4,5.4-3.6,7.5-3.6c2,0,3,1.4,3,4.2c0,0.9-0.1,2.1-0.3,3.8l-1.7,11.7c-0.3,2.3-0.5,4.2-0.5,5.5c0,1.1,0.3,1.6,0.9,1.6
	c1.4,0,3.2-1.9,5.3-5.8c0.5,0.3,0.8,0.6,0.8,1c0,1.4-1.2,3.1-3.5,5.3c-2.3,2.2-4.2,3.3-5.7,3.3c-1.6,0-2.4-1.2-2.4-3.5
	c0-1.7,0.2-4.1,0.7-7.1l1.1-7.6c0.4-2.5,0.5-4.4,0.5-5.8c0-1.6-0.6-2.5-1.7-2.5c-2.7,0-5.4,1.8-8.1,5.4c-2.7,3.6-4.3,7.5-4.8,11.6
	L394.2,348.7z M441.4,337.4c-2.4,3.9-4.9,7.1-7.8,9.5c-2.8,2.5-5.3,3.7-7.3,3.7c-2.9,0-4.3-2.3-4.3-6.9c0-6.3,2.1-11.8,6.2-16.4
	c4.2-4.6,9.1-7,14.8-7c2.2,0,4,0.3,5.5,0.8c-0.1,0.4-0.2,0.6-0.2,0.7l-0.4,1.7c-0.2,1.1-0.4,1.8-0.4,2l-2,13.8l-0.3,2
	c-0.3,2-0.4,3.3-0.4,4c0,0.9,0.3,1.3,0.8,1.3c1.8,0,3.5-2,5.4-5.9c0.6,0.3,0.8,0.7,0.8,1c0,0.7-0.9,2.2-2.7,4.4
	c-2.4,3-4.7,4.5-6.8,4.5c-1.5,0-2.3-1-2.3-3.1c0-0.6,0.1-1.5,0.2-2.6l0.3-2.5l0.4-2.8L441.4,337.4z M443.1,325
	c-1.9-1.1-3.8-1.6-5.8-1.6c-2.9,0-5.4,1.8-7.3,5.3c-2,3.6-3,8-3,13.2c0,2.7,0.8,4.1,2.4,4.1c1.9,0,4.1-1.4,6.7-4.2
	c3.5-3.8,5.7-8.3,6.4-13.4L443.1,325z M461.7,350.2l-0.2,2.5c-0.6,6.5-3,12-7,16.6c-4,4.6-8.5,6.9-13.6,6.9c-1,0-2-0.1-3-0.4
	l4.5-4.5c1.2,0.4,2.3,0.5,3.4,0.5c6.2,0,9.8-4.8,10.8-14.5l3.2-32.4c-1,0.7-2,1.6-3.2,2.5c-1.4,1.2-2.6,2.1-3.6,2.8l0.2-2.5
	c3.5-2.1,7.4-5.1,11.6-8.9l-1.4,14.5c2.2-3.9,4.7-7.1,7.4-9.5c2.8-2.5,5.2-3.7,7.2-3.7c3,0,4.5,2.6,4.5,7.7c0,6.1-2,11.4-5.9,15.9
	c-3.9,4.5-8.6,6.7-13.9,6.7L461.7,350.2z M462.2,345.5c1.7,1.1,3.6,1.6,5.7,1.6c2.9,0,5.2-1.7,6.9-5c1.8-3.3,2.7-7.7,2.7-13
	c0-3.1-0.8-4.7-2.5-4.7c-1.9,0-4.1,1.4-6.6,4.2c-3.4,3.8-5.4,8.2-5.9,13.4L462.2,345.5z M484.7,348.9l4.3-3.5
	c1.6,1.7,3.7,2.6,6.1,2.6c3,0,4.5-1.4,4.5-4.3c0-1.6-1.4-3.8-4.1-6.7l-1.8-1.8c-2.6-2.7-3.9-4.9-3.9-6.6c0-2.4,1-4.4,3.1-6.1
	c2.1-1.6,4.7-2.5,7.8-2.5c1.7,0,3.5,0.3,5.5,0.9l-3.8,3.5c-1.6-1.2-3.3-1.8-5.3-1.8c-2.3,0-3.4,0.9-3.4,2.8c0,1.4,1.3,3.3,3.8,6
	l1.9,2.1c2.9,3,4.3,5.4,4.3,7.2c0,2.6-1.3,4.9-3.8,7c-2.5,2-5.4,3-8.7,3C488.9,350.6,486.7,350,484.7,348.9z"/>
<linearGradient id="SVGID_00000077311648413612354100000007683881317300586671_" gradientUnits="userSpaceOnUse" x1="375.0135" y1="103.2" x2="375.0135" y2="2.2" gradientTransform="matrix(1 0 0 -1 0 382)">
	<stop  offset="0" style="stop-color:#000046"/>
	<stop  offset="1" style="stop-color:#3F5EFB"/>
</linearGradient>
<path style="fill:url(#SVGID_00000077311648413612354100000007683881317300586671_);" d="M359.9,344.3l5.3-3.2
	c0.8,5.1,3.9,7.7,9.2,7.7c2.6,0,4.7-0.7,6.3-2.1c1.6-1.4,2.5-3.2,2.5-5.4c0-3-1.8-6-5.5-9l-3.8-3.1c-3-2.5-5.1-4.5-6.1-5.9
	c-1-1.5-1.5-3.1-1.5-4.9c0-3.4,1.4-6.2,4.1-8.5c2.7-2.2,6.2-3.3,10.3-3.3c3.3,0,6.4,0.8,9.4,2.4l-1.8,4.2l-0.8,1.8
	c-0.5,1.1-1,1.6-1.6,1.6c-0.3,0-0.6-0.1-0.8-0.3c0.4-1.1,0.5-1.9,0.5-2.6c0-1.3-0.7-2.4-2.2-3.3c-1.5-0.9-3.3-1.3-5.4-1.3
	c-4.9,0-7.4,2-7.4,6.1c0,1.5,0.5,2.9,1.6,4.2c1.1,1.3,3.4,3.4,6.8,6.2l3,2.5c3.9,3.1,5.8,6.4,5.8,9.8c0,3.8-1.6,6.9-4.8,9.5
	c-3.2,2.5-7.2,3.8-12,3.8C365.2,351,361.5,348.8,359.9,344.3z"/>
<linearGradient id="SVGID_00000118387631665306502400000004409127857787912381_" gradientUnits="userSpaceOnUse" x1="303.623" y1="103.2" x2="303.623" y2="11.7" gradientTransform="matrix(1 0 0 -1 0 382)">
	<stop  offset="0.2448" style="stop-color:#000046"/>
	<stop  offset="1" style="stop-color:#3F5EFB"/>
</linearGradient>
<path style="fill:url(#SVGID_00000118387631665306502400000004409127857787912381_);" d="M278.8,325.5l-5.1,4.9
	c-0.5-1.6-0.7-3.2-0.7-4.9c0-5.2,1.9-9.4,5.8-12.8c3.9-3.4,8.8-5.1,14.8-5.1c1,0,1.8,0,2.6,0.1c0.5,0,0.8,0.1,1,0.1h0.4
	c0,0.6,0,1,0,1.3c0,3.2,1.4,8.4,4.2,15.5l1.4,3.6c0.2,0.5,0.5,1.3,0.9,2.5l1.2,3.2c0.6,1.7,1.2,3.4,1.6,5.1l1.6-2.7
	c1.8-3,3.4-5.7,4.8-8.1l3.1-5.3l2.4-4.4l2.9-5.2c0.3-0.5,0.8-1.5,1.6-2.9l6-3.8c-1.3,7.8-2,14-2,18.7l-0.4,10.2l-0.1,3.8
	c0,3.2,0.2,5.4,0.6,6.4c0.4,1,1.4,1.5,2.8,1.5c1.5,0,2.8-0.2,4-0.6c0.2,0.2,0.3,0.5,0.3,0.7c0,0.7-0.7,1.2-2.1,1.5l-1.7,0.4
	l-8.9,1.8c-0.1-2-0.2-3.8-0.2-5.4c0-10.6,0.5-20.1,1.4-28.3c-2.9,4.1-5,7.4-6.5,9.9l-1.9,3.2c-2.6,4.4-4.6,8.7-6.2,12.8l-4.5,4.7
	c-0.3-3.9-1.8-9.5-4.7-16.6l-1.2-3.2c-0.2-0.4-0.5-1.3-1.1-2.8c-1.2-2.9-2.1-5.6-2.7-8.2l-2.5,15.5c-0.8,4.6-1.5,7.8-2.3,9.5
	c-0.8,1.7-2.2,3-4.3,4.1l7.9,0.6l-4,3.7l-13.3-0.7l4-3.9l3.5,0.3c1.4-1,2.4-2.3,2.9-3.8c0.6-1.5,1.3-4.5,2-9l3.8-22h-1.5
	c-8.7,0-13,2.9-13,8.6C277.3,321.9,277.8,323.7,278.8,325.5z"/>
</svg>
